<mxfile host="app.diagrams.net" agent="Mozilla/5.0 (Windows NT 10.0; Win64; x64) AppleWebKit/537.36 (KHTML, like Gecko) Chrome/135.0.0.0 Safari/537.36" version="26.2.12">
  <diagram name="第 1 页" id="Cfy5hXthvsKqwcoe-ikN">
    <mxGraphModel dx="1147" dy="561" grid="1" gridSize="10" guides="1" tooltips="1" connect="1" arrows="1" fold="1" page="1" pageScale="1" pageWidth="827" pageHeight="1169" math="0" shadow="0">
      <root>
        <mxCell id="0" />
        <mxCell id="1" parent="0" />
        <mxCell id="NjBOjvmUIAoxbCZeAJ4J-38" value="Data Platform" style="rounded=0;whiteSpace=wrap;html=1;fontFamily=Helvetica;fontSize=11;fontColor=#333333;labelBackgroundColor=default;fillColor=#f5f5f5;strokeColor=#666666;verticalAlign=top;" vertex="1" parent="1">
          <mxGeometry x="190" y="20" width="480" height="760" as="geometry" />
        </mxCell>
        <mxCell id="NjBOjvmUIAoxbCZeAJ4J-2" value="Develop Data&amp;nbsp;&lt;div&gt;Application&lt;br&gt;&lt;/div&gt;" style="ellipse;whiteSpace=wrap;html=1;" vertex="1" parent="1">
          <mxGeometry x="288" y="80" width="140" height="70" as="geometry" />
        </mxCell>
        <mxCell id="NjBOjvmUIAoxbCZeAJ4J-4" value="Observe the&amp;nbsp;&lt;div&gt;health of the platform&lt;/div&gt;" style="ellipse;whiteSpace=wrap;html=1;" vertex="1" parent="1">
          <mxGeometry x="474" y="130" width="140" height="70" as="geometry" />
        </mxCell>
        <mxCell id="NjBOjvmUIAoxbCZeAJ4J-7" style="rounded=0;orthogonalLoop=1;jettySize=auto;html=1;exitX=0.5;exitY=0.5;exitDx=0;exitDy=0;exitPerimeter=0;entryX=0;entryY=0.5;entryDx=0;entryDy=0;" edge="1" parent="1" source="NjBOjvmUIAoxbCZeAJ4J-5" target="NjBOjvmUIAoxbCZeAJ4J-2">
          <mxGeometry relative="1" as="geometry" />
        </mxCell>
        <mxCell id="NjBOjvmUIAoxbCZeAJ4J-27" style="edgeStyle=none;shape=connector;rounded=0;orthogonalLoop=1;jettySize=auto;html=1;exitX=0.5;exitY=0.5;exitDx=0;exitDy=0;exitPerimeter=0;entryX=0;entryY=0.5;entryDx=0;entryDy=0;strokeColor=default;align=center;verticalAlign=middle;fontFamily=Helvetica;fontSize=11;fontColor=default;labelBackgroundColor=default;endArrow=classic;" edge="1" parent="1" source="NjBOjvmUIAoxbCZeAJ4J-5" target="NjBOjvmUIAoxbCZeAJ4J-25">
          <mxGeometry relative="1" as="geometry" />
        </mxCell>
        <mxCell id="NjBOjvmUIAoxbCZeAJ4J-5" value="Developer" style="shape=umlActor;html=1;verticalLabelPosition=bottom;verticalAlign=top;align=center;" vertex="1" parent="1">
          <mxGeometry x="64" y="270" width="30" height="60" as="geometry" />
        </mxCell>
        <mxCell id="NjBOjvmUIAoxbCZeAJ4J-8" value="Deploy Application" style="ellipse;whiteSpace=wrap;html=1;" vertex="1" parent="1">
          <mxGeometry x="288" y="180" width="140" height="70" as="geometry" />
        </mxCell>
        <mxCell id="NjBOjvmUIAoxbCZeAJ4J-9" style="rounded=0;orthogonalLoop=1;jettySize=auto;html=1;exitX=0.5;exitY=0.5;exitDx=0;exitDy=0;exitPerimeter=0;entryX=-0.05;entryY=0.531;entryDx=0;entryDy=0;entryPerimeter=0;" edge="1" parent="1" source="NjBOjvmUIAoxbCZeAJ4J-5" target="NjBOjvmUIAoxbCZeAJ4J-8">
          <mxGeometry relative="1" as="geometry" />
        </mxCell>
        <mxCell id="NjBOjvmUIAoxbCZeAJ4J-11" style="edgeStyle=none;shape=connector;rounded=0;orthogonalLoop=1;jettySize=auto;html=1;exitX=0.5;exitY=0.5;exitDx=0;exitDy=0;exitPerimeter=0;entryX=1;entryY=0.5;entryDx=0;entryDy=0;strokeColor=default;align=center;verticalAlign=middle;fontFamily=Helvetica;fontSize=11;fontColor=default;labelBackgroundColor=default;endArrow=classic;" edge="1" parent="1" source="NjBOjvmUIAoxbCZeAJ4J-10" target="NjBOjvmUIAoxbCZeAJ4J-4">
          <mxGeometry relative="1" as="geometry" />
        </mxCell>
        <mxCell id="NjBOjvmUIAoxbCZeAJ4J-10" value="Manager" style="shape=umlActor;html=1;verticalLabelPosition=bottom;verticalAlign=top;align=center;fontFamily=Helvetica;fontSize=11;fontColor=default;labelBackgroundColor=default;" vertex="1" parent="1">
          <mxGeometry x="734" y="230" width="30" height="60" as="geometry" />
        </mxCell>
        <mxCell id="NjBOjvmUIAoxbCZeAJ4J-12" value="Handle Incident" style="ellipse;whiteSpace=wrap;html=1;" vertex="1" parent="1">
          <mxGeometry x="474" y="340" width="140" height="70" as="geometry" />
        </mxCell>
        <mxCell id="NjBOjvmUIAoxbCZeAJ4J-13" style="edgeStyle=none;shape=connector;rounded=0;orthogonalLoop=1;jettySize=auto;html=1;exitX=0.5;exitY=0.5;exitDx=0;exitDy=0;exitPerimeter=0;entryX=0.99;entryY=0.337;entryDx=0;entryDy=0;entryPerimeter=0;strokeColor=default;align=center;verticalAlign=middle;fontFamily=Helvetica;fontSize=11;fontColor=default;labelBackgroundColor=default;endArrow=classic;" edge="1" parent="1" source="NjBOjvmUIAoxbCZeAJ4J-10" target="NjBOjvmUIAoxbCZeAJ4J-12">
          <mxGeometry relative="1" as="geometry" />
        </mxCell>
        <mxCell id="NjBOjvmUIAoxbCZeAJ4J-14" style="edgeStyle=none;shape=connector;rounded=0;orthogonalLoop=1;jettySize=auto;html=1;exitX=0.5;exitY=0.5;exitDx=0;exitDy=0;exitPerimeter=0;entryX=0.064;entryY=0.68;entryDx=0;entryDy=0;entryPerimeter=0;strokeColor=default;align=center;verticalAlign=middle;fontFamily=Helvetica;fontSize=11;fontColor=default;labelBackgroundColor=default;endArrow=classic;" edge="1" parent="1" source="NjBOjvmUIAoxbCZeAJ4J-5" target="NjBOjvmUIAoxbCZeAJ4J-12">
          <mxGeometry relative="1" as="geometry" />
        </mxCell>
        <mxCell id="NjBOjvmUIAoxbCZeAJ4J-15" value="Operator" style="shape=umlActor;html=1;verticalLabelPosition=bottom;verticalAlign=top;align=center;fontFamily=Helvetica;fontSize=11;fontColor=default;labelBackgroundColor=default;" vertex="1" parent="1">
          <mxGeometry x="744" y="390" width="30" height="60" as="geometry" />
        </mxCell>
        <mxCell id="NjBOjvmUIAoxbCZeAJ4J-18" style="edgeStyle=none;shape=connector;rounded=0;orthogonalLoop=1;jettySize=auto;html=1;exitX=0.5;exitY=0.5;exitDx=0;exitDy=0;exitPerimeter=0;strokeColor=default;align=center;verticalAlign=middle;fontFamily=Helvetica;fontSize=11;fontColor=default;labelBackgroundColor=default;endArrow=classic;" edge="1" parent="1" source="NjBOjvmUIAoxbCZeAJ4J-15" target="NjBOjvmUIAoxbCZeAJ4J-12">
          <mxGeometry relative="1" as="geometry" />
        </mxCell>
        <mxCell id="NjBOjvmUIAoxbCZeAJ4J-30" style="edgeStyle=none;shape=connector;rounded=0;orthogonalLoop=1;jettySize=auto;html=1;exitX=0.5;exitY=0.5;exitDx=0;exitDy=0;exitPerimeter=0;entryX=0;entryY=0.5;entryDx=0;entryDy=0;strokeColor=default;align=center;verticalAlign=middle;fontFamily=Helvetica;fontSize=11;fontColor=default;labelBackgroundColor=default;endArrow=classic;" edge="1" parent="1" source="NjBOjvmUIAoxbCZeAJ4J-19" target="NjBOjvmUIAoxbCZeAJ4J-29">
          <mxGeometry relative="1" as="geometry" />
        </mxCell>
        <mxCell id="NjBOjvmUIAoxbCZeAJ4J-19" value="Data User" style="shape=umlActor;html=1;verticalLabelPosition=bottom;verticalAlign=top;align=center;fontFamily=Helvetica;fontSize=11;fontColor=default;labelBackgroundColor=default;" vertex="1" parent="1">
          <mxGeometry x="54" y="470" width="30" height="60" as="geometry" />
        </mxCell>
        <mxCell id="NjBOjvmUIAoxbCZeAJ4J-20" value="Explore Data" style="ellipse;whiteSpace=wrap;html=1;" vertex="1" parent="1">
          <mxGeometry x="314" y="460" width="140" height="70" as="geometry" />
        </mxCell>
        <mxCell id="NjBOjvmUIAoxbCZeAJ4J-21" style="edgeStyle=none;shape=connector;rounded=0;orthogonalLoop=1;jettySize=auto;html=1;exitX=0.5;exitY=0.5;exitDx=0;exitDy=0;exitPerimeter=0;entryX=0.024;entryY=0.389;entryDx=0;entryDy=0;entryPerimeter=0;strokeColor=default;align=center;verticalAlign=middle;fontFamily=Helvetica;fontSize=11;fontColor=default;labelBackgroundColor=default;endArrow=classic;" edge="1" parent="1" source="NjBOjvmUIAoxbCZeAJ4J-5" target="NjBOjvmUIAoxbCZeAJ4J-20">
          <mxGeometry relative="1" as="geometry" />
        </mxCell>
        <mxCell id="NjBOjvmUIAoxbCZeAJ4J-22" style="edgeStyle=none;shape=connector;rounded=0;orthogonalLoop=1;jettySize=auto;html=1;exitX=0.5;exitY=0.5;exitDx=0;exitDy=0;exitPerimeter=0;entryX=0.076;entryY=0.891;entryDx=0;entryDy=0;entryPerimeter=0;strokeColor=default;align=center;verticalAlign=middle;fontFamily=Helvetica;fontSize=11;fontColor=default;labelBackgroundColor=default;endArrow=classic;" edge="1" parent="1" source="NjBOjvmUIAoxbCZeAJ4J-19" target="NjBOjvmUIAoxbCZeAJ4J-20">
          <mxGeometry relative="1" as="geometry" />
        </mxCell>
        <mxCell id="NjBOjvmUIAoxbCZeAJ4J-23" value="Manage Application&lt;div&gt;Dependency&lt;/div&gt;" style="ellipse;whiteSpace=wrap;html=1;" vertex="1" parent="1">
          <mxGeometry x="274" y="370" width="140" height="70" as="geometry" />
        </mxCell>
        <mxCell id="NjBOjvmUIAoxbCZeAJ4J-24" style="edgeStyle=none;shape=connector;rounded=0;orthogonalLoop=1;jettySize=auto;html=1;exitX=0.5;exitY=0.5;exitDx=0;exitDy=0;exitPerimeter=0;entryX=-0.001;entryY=0.394;entryDx=0;entryDy=0;entryPerimeter=0;strokeColor=default;align=center;verticalAlign=middle;fontFamily=Helvetica;fontSize=11;fontColor=default;labelBackgroundColor=default;endArrow=classic;" edge="1" parent="1" source="NjBOjvmUIAoxbCZeAJ4J-5" target="NjBOjvmUIAoxbCZeAJ4J-23">
          <mxGeometry relative="1" as="geometry" />
        </mxCell>
        <mxCell id="NjBOjvmUIAoxbCZeAJ4J-25" value="Control data quality" style="ellipse;whiteSpace=wrap;html=1;" vertex="1" parent="1">
          <mxGeometry x="374" y="270" width="140" height="70" as="geometry" />
        </mxCell>
        <mxCell id="NjBOjvmUIAoxbCZeAJ4J-28" style="edgeStyle=none;shape=connector;rounded=0;orthogonalLoop=1;jettySize=auto;html=1;exitX=0.5;exitY=0.5;exitDx=0;exitDy=0;exitPerimeter=0;entryX=0.987;entryY=0.294;entryDx=0;entryDy=0;entryPerimeter=0;strokeColor=default;align=center;verticalAlign=middle;fontFamily=Helvetica;fontSize=11;fontColor=default;labelBackgroundColor=default;endArrow=classic;" edge="1" parent="1" source="NjBOjvmUIAoxbCZeAJ4J-10" target="NjBOjvmUIAoxbCZeAJ4J-25">
          <mxGeometry relative="1" as="geometry" />
        </mxCell>
        <mxCell id="NjBOjvmUIAoxbCZeAJ4J-29" value="Generate Business&lt;div&gt;Report&lt;/div&gt;" style="ellipse;whiteSpace=wrap;html=1;" vertex="1" parent="1">
          <mxGeometry x="314" y="570" width="140" height="70" as="geometry" />
        </mxCell>
        <mxCell id="NjBOjvmUIAoxbCZeAJ4J-31" value="Data Mining" style="ellipse;whiteSpace=wrap;html=1;" vertex="1" parent="1">
          <mxGeometry x="314" y="670" width="140" height="70" as="geometry" />
        </mxCell>
        <mxCell id="NjBOjvmUIAoxbCZeAJ4J-32" style="edgeStyle=none;shape=connector;rounded=0;orthogonalLoop=1;jettySize=auto;html=1;exitX=0.5;exitY=0.5;exitDx=0;exitDy=0;exitPerimeter=0;entryX=0.027;entryY=0.3;entryDx=0;entryDy=0;entryPerimeter=0;strokeColor=default;align=center;verticalAlign=middle;fontFamily=Helvetica;fontSize=11;fontColor=default;labelBackgroundColor=default;endArrow=classic;" edge="1" parent="1" source="NjBOjvmUIAoxbCZeAJ4J-19" target="NjBOjvmUIAoxbCZeAJ4J-31">
          <mxGeometry relative="1" as="geometry" />
        </mxCell>
        <mxCell id="NjBOjvmUIAoxbCZeAJ4J-33" value="Regulate Date&amp;nbsp;&lt;div&gt;movement and process&lt;/div&gt;" style="ellipse;whiteSpace=wrap;html=1;" vertex="1" parent="1">
          <mxGeometry x="484" y="450" width="140" height="70" as="geometry" />
        </mxCell>
        <mxCell id="NjBOjvmUIAoxbCZeAJ4J-34" style="edgeStyle=none;shape=connector;rounded=0;orthogonalLoop=1;jettySize=auto;html=1;exitX=0.5;exitY=0.5;exitDx=0;exitDy=0;exitPerimeter=0;entryX=1.007;entryY=0.409;entryDx=0;entryDy=0;entryPerimeter=0;strokeColor=default;align=center;verticalAlign=middle;fontFamily=Helvetica;fontSize=11;fontColor=default;labelBackgroundColor=default;endArrow=classic;" edge="1" parent="1" source="NjBOjvmUIAoxbCZeAJ4J-10" target="NjBOjvmUIAoxbCZeAJ4J-33">
          <mxGeometry relative="1" as="geometry" />
        </mxCell>
        <mxCell id="NjBOjvmUIAoxbCZeAJ4J-42" value="" style="edgeStyle=none;shape=connector;rounded=0;orthogonalLoop=1;jettySize=auto;html=1;strokeColor=default;align=center;verticalAlign=middle;fontFamily=Helvetica;fontSize=11;fontColor=default;labelBackgroundColor=default;endArrow=classic;" edge="1" parent="1" source="NjBOjvmUIAoxbCZeAJ4J-39" target="NjBOjvmUIAoxbCZeAJ4J-41">
          <mxGeometry relative="1" as="geometry" />
        </mxCell>
        <mxCell id="NjBOjvmUIAoxbCZeAJ4J-39" value="Source Systems" style="rounded=0;whiteSpace=wrap;html=1;fontFamily=Helvetica;fontSize=11;labelBackgroundColor=default;fillColor=#dae8fc;strokeColor=#6c8ebf;" vertex="1" parent="1">
          <mxGeometry x="80" y="1020" width="140" height="90" as="geometry" />
        </mxCell>
        <mxCell id="NjBOjvmUIAoxbCZeAJ4J-41" value="" style="whiteSpace=wrap;html=1;fontSize=11;fillColor=#dae8fc;strokeColor=#6c8ebf;rounded=0;labelBackgroundColor=default;" vertex="1" parent="1">
          <mxGeometry x="285.5" y="1020" width="145" height="90" as="geometry" />
        </mxCell>
      </root>
    </mxGraphModel>
  </diagram>
</mxfile>
